<?xml version="1.0" encoding="UTF-8" standalone="no"?>
<!DOCTYPE svg PUBLIC "-//W3C//DTD SVG 1.1//EN" "http://www.w3.org/Graphics/SVG/1.1/DTD/svg11.dtd">
<svg version="1.1" xmlns="http://www.w3.org/2000/svg" xmlns:xlink="http://www.w3.org/1999/xlink" preserveAspectRatio="xMidYMid meet" viewBox="0 0 640 640" width="640" height="640"><defs><path d="M424.43 263.13C454.4 233.16 469.59 196.5 469.59 154.14C469.59 111.8 454.4 75.13 424.43 45.15C394.46 15.19 357.79 0 315.44 0C273.08 0 236.42 15.19 206.45 45.16C176.48 75.12 161.29 111.79 161.29 154.14C161.29 196.5 176.48 233.17 206.46 263.13C236.43 293.09 273.1 308.29 315.44 308.29C357.79 308.29 394.47 293.1 424.43 263.13Z" id="gKo3Zwsx"></path><path d="M579.97 451.69C577.38 437.22 574.03 423.53 570.03 411.03C565.89 398.1 560.27 385.34 553.31 373.11C546.1 360.41 537.62 349.36 528.11 340.26C518.16 330.75 505.99 323.09 491.9 317.51C477.87 311.96 462.32 309.15 445.68 309.15C439.15 309.15 432.83 311.83 420.63 319.77C413.12 324.67 404.34 330.34 394.53 336.6C386.15 341.94 374.79 346.95 360.76 351.48C347.08 355.91 333.18 358.15 319.46 358.15C305.75 358.15 291.86 355.91 278.15 351.48C264.14 346.95 252.78 341.95 244.41 336.61C234.7 330.4 225.91 324.74 218.29 319.77C206.1 311.82 199.78 309.14 193.24 309.14C176.6 309.14 161.06 311.96 147.03 317.52C132.95 323.09 120.77 330.74 110.82 340.27C101.31 349.37 92.83 360.42 85.62 373.11C78.67 385.34 73.05 398.1 68.91 411.03C64.91 423.54 61.56 437.22 58.97 451.69C56.39 466.03 54.64 479.64 53.78 492.14C52.93 504.39 52.5 517.1 52.5 529.93C52.5 563.34 63.12 590.39 84.06 610.33C104.75 630.02 132.11 640 165.4 640C196.21 640 442.74 640 473.56 640C506.84 640 534.2 630.02 554.89 610.33C575.83 590.4 586.45 563.35 586.45 529.93C586.45 517.03 586.01 504.31 585.16 492.13C584.3 479.66 582.55 466.05 579.97 451.69Z" id="a2QJ9nkVb5"></path></defs><g><g><g><use xlink:href="#gKo3Zwsx" opacity="1" fill="#ffffff" fill-opacity="1"></use><g><use xlink:href="#gKo3Zwsx" opacity="1" fill-opacity="0" stroke="#000000" stroke-width="1" stroke-opacity="0"></use></g></g><g><use xlink:href="#a2QJ9nkVb5" opacity="1" fill="#ffffff" fill-opacity="1"></use><g><use xlink:href="#a2QJ9nkVb5" opacity="1" fill-opacity="0" stroke="#000000" stroke-width="1" stroke-opacity="0"></use></g></g></g></g></svg>